<svg width="15" height="16" viewBox="0 0 15 16" fill="none" xmlns="http://www.w3.org/2000/svg">
<path d="M14.4247 0.316895C14.4637 0.332497 14.5027 0.352001 14.5417 0.367604C15.0059 0.550938 15.158 1.11654 14.846 1.50662C14.7992 1.56513 14.7485 1.61584 14.6938 1.66655C12.6889 3.67152 10.6839 5.6804 8.67502 7.68147C8.5775 7.77899 8.5697 7.8258 8.67112 7.92722C10.6956 9.94389 12.7123 11.9645 14.7328 13.9811C14.9396 14.1879 15.0566 14.4219 14.9864 14.7184C14.8616 15.2684 14.218 15.479 13.7928 15.1085C13.7499 15.0694 13.707 15.0265 13.6679 14.9875C11.6591 12.9787 9.6502 10.9698 7.64133 8.95701C7.53991 8.85559 7.4931 8.86339 7.39558 8.96091C5.375 10.9893 3.35052 13.0099 1.32995 15.0343C0.943776 15.4205 0.389873 15.3737 0.136326 14.9329C0.0973182 14.8627 0.0661124 14.7847 0.0349066 14.7106C0.0349066 14.6131 0.0349066 14.5155 0.0349066 14.418C0.10512 14.1996 0.257248 14.0358 0.417178 13.8758C2.40655 11.8904 4.38812 9.90488 6.37749 7.92331C6.47111 7.8297 6.47111 7.78289 6.37749 7.68927C4.38032 5.7038 2.39095 3.71053 0.401575 1.72506C0.245546 1.56903 0.101219 1.4091 0.0310059 1.19456C0.0310059 1.09704 0.0310059 0.999522 0.0310059 0.902004C0.124623 0.605548 0.31966 0.410512 0.616115 0.316895C0.713633 0.316895 0.811151 0.316895 0.90867 0.316895C1.12321 0.383207 1.28314 0.531435 1.43917 0.687464C3.42464 2.67684 5.41791 4.66621 7.40338 6.65948C7.497 6.7531 7.54381 6.7531 7.63742 6.65948C9.6229 4.66621 11.6162 2.67684 13.6016 0.687464C13.7577 0.531435 13.9176 0.387108 14.1321 0.316895C14.2297 0.316895 14.3272 0.316895 14.4247 0.316895Z" fill="#23303B"/>
</svg>
