<svg width="92" height="92" viewBox="0 0 92 92" fill="none" xmlns="http://www.w3.org/2000/svg">
<path d="M69.877 47.7637C72.7414 36.5409 66.9647 24.246 55.5696 18.786C42.683 12.6113 27.4859 17.5132 21.6302 29.7341C18.8167 35.606 18.6716 42.0967 20.7079 47.9406C21.1562 49.2273 21.1637 50.6954 20.343 51.8094C18.9975 53.6291 17.229 55.0805 15.2045 56.0262C18.2698 58.2572 22.0334 59.3742 25.789 59.2301C27.1165 59.1795 27.7803 59.154 28.1815 59.2764C28.4623 59.3622 28.7855 59.5626 29.289 59.9195" stroke="#1A1A1A" stroke-width="3.20629" stroke-linecap="round" stroke-linejoin="round"/>
<path d="M37.802 55.344C34.2235 62.8123 37.652 71.9008 45.4583 75.6412C46.3756 76.082 47.3315 76.4358 48.3142 76.6987C49.0216 76.8875 49.3754 76.9822 49.5853 77.1254C49.7952 77.2683 50.0346 77.5932 50.5131 78.2421C51.8664 80.0782 53.8208 81.4341 56.0392 82.0312C55.7212 80.7083 55.74 79.3125 56.0935 77.9757C56.3111 77.159 57.0101 76.599 57.79 76.3175C61.3322 75.0397 64.3551 72.4792 66.0745 68.8909C69.6529 61.4226 66.2245 52.3342 58.4182 48.5938C50.6119 44.8533 41.3805 47.8758 37.802 55.344Z" stroke="#1A1A1A" stroke-width="3.20629" stroke-linejoin="round"/>
</svg>
