<svg width="13" height="16" viewBox="0 0 13 16" fill="none" xmlns="http://www.w3.org/2000/svg">
<path d="M11.2928 1.93652C9.82052 0.464217 8.68697 0.93327 7.65766 1.93652L1.85313 7.73455C1.60915 8.0096 1.44275 8.34461 1.37104 8.70522L1.03229 11.0896C1.01067 11.2395 1.02418 11.3923 1.07176 11.5361C1.11935 11.6799 1.19969 11.8106 1.30646 11.918C1.41322 12.0254 1.54349 12.1065 1.68698 12.155C1.83047 12.2034 1.98325 12.2178 2.13326 12.1971L4.52413 11.8583C4.88326 11.7879 5.21652 11.6213 5.48829 11.3762L11.2928 5.57169C12.2765 4.56843 12.7456 3.40883 11.2928 1.93652Z" stroke="#A4A9AE" stroke-width="1.3" stroke-linecap="round" stroke-linejoin="round"/>
<path d="M6.80402 2.77051C7.61914 3.10774 8.35977 3.60239 8.98353 4.22615C9.60729 4.84991 10.1019 5.59055 10.4392 6.40567" stroke="#A4A9AE" stroke-width="1.3" stroke-linecap="round" stroke-linejoin="round"/>
<path d="M1 15.3306H12.2052" stroke="#A4A9AE" stroke-width="1.3" stroke-linecap="round" stroke-linejoin="round"/>
</svg>
