<svg width="33" height="37" viewBox="0 0 33 37" fill="none" xmlns="http://www.w3.org/2000/svg">
<path d="M19.2728 36.9999C14.731 35.3874 11.8849 32.0806 10.3053 27.6158C9.86934 26.4775 9.7252 25.2464 9.88633 24.0368C10.0475 22.8272 10.5087 21.6784 11.2271 20.6968C12.7011 18.6154 14.7451 17.7203 17.2499 18.2353C19.7548 18.7503 21.3836 20.402 22.0379 22.906C22.2525 23.7301 22.2068 24.6216 22.2701 25.4847C22.2881 26.0541 22.453 26.6089 22.7485 27.0942C23.0441 27.5795 23.4601 27.9785 23.9553 28.2516C24.3962 28.4958 24.8888 28.6296 25.3915 28.6417C25.8943 28.6538 26.3925 28.5438 26.8444 28.3211C27.2964 28.0983 27.6887 27.7693 27.9885 27.3617C28.2883 26.954 28.4869 26.4796 28.5674 25.9784C28.7415 24.6857 28.6674 23.3713 28.3492 22.1069C27.5084 18.143 25.4609 15.0031 21.957 12.9536C19.6747 11.647 17.0335 11.1251 14.4317 11.4666C11.83 11.808 9.40867 12.9944 7.53315 14.8468C5.1743 17.1485 3.73599 20.2456 3.49207 23.5485C3.24816 26.8514 4.2156 30.1295 6.21029 32.759C6.34894 32.9004 6.45432 33.0715 6.51828 33.2597C6.58225 33.4479 6.60324 33.6483 6.57978 33.8458C6.55122 34.0693 6.45519 34.2786 6.30477 34.445C6.15434 34.6115 5.95675 34.7272 5.73893 34.7764C5.51273 34.8403 5.27244 34.8312 5.05165 34.7503C4.83085 34.6694 4.6406 34.5208 4.50762 34.3253C3.37017 32.8951 2.50753 31.2628 1.96411 29.5125C0.286019 23.9361 1.20777 18.8285 4.89464 14.3389C6.12265 12.7902 7.66384 11.524 9.41532 10.6248C11.1668 9.72562 13.0883 9.2142 15.0512 9.12472C20.7609 8.79084 25.1302 11.2558 28.2824 15.9656C30.1479 18.7988 31.0743 22.1568 30.9279 25.5557C30.8816 26.9468 30.3237 28.2705 29.363 29.2687C28.4023 30.2669 27.1077 30.868 25.7318 30.9546C24.3784 31.0125 23.0516 30.5627 22.0072 29.6918C20.9627 28.8208 20.2743 27.5905 20.0748 26.2377C19.9622 25.4669 20.0116 24.6749 19.9237 23.897C19.6528 21.4817 17.1514 19.8159 14.9491 20.6044C13.3977 21.1585 12.6061 22.4017 12.2825 23.9645C11.9588 25.5273 12.3388 26.909 12.9861 28.2658C14.1482 30.6587 15.9506 32.6753 18.1892 34.0874C18.6775 34.4361 19.2473 34.6504 19.8426 34.709C20.0819 34.7365 20.3056 34.8435 20.4782 35.0133C20.6507 35.183 20.7626 35.4058 20.7961 35.6466C20.8427 35.8914 20.8074 36.1448 20.696 36.3672C20.5846 36.5896 20.4033 36.7684 20.1805 36.8756L19.9271 36.9999H19.2728Z" fill="#B4B2C8" fill-opacity="0.4"/>
<path d="M12.191 37.0003C11.8998 36.8214 11.6265 36.6144 11.3749 36.3823C9.23943 34.0309 7.44173 31.4629 6.28079 28.4687C5.30309 25.9627 5.27222 23.1812 6.19404 20.6538C7.11585 18.1263 8.92597 16.0293 11.2799 14.7619C13.6793 13.5081 16.4682 13.2471 19.055 14.0341C21.6419 14.8212 23.8235 16.5945 25.1374 18.978C26.0698 20.6139 26.5691 22.4647 26.5868 24.352C26.5868 25.137 26.1752 25.6591 25.4962 25.6804C24.8172 25.7018 24.3212 25.1974 24.3001 24.3982C24.2982 23.197 24.0466 22.0095 23.5618 20.9126C23.077 19.8156 22.3699 18.8335 21.4857 18.0297C20.5565 17.1758 19.443 16.5522 18.2336 16.2081C17.0242 15.8641 15.7521 15.8092 14.5181 16.0477C13.284 16.2862 12.1219 16.8116 11.1239 17.5822C10.1258 18.3529 9.31915 19.3476 8.76796 20.4876C7.48388 23.052 7.52617 25.6485 8.66249 28.2556C9.78815 30.7199 11.3123 32.9778 13.1725 34.9367C13.658 35.4694 13.732 36.123 13.3063 36.5847C13.1206 36.7473 12.9163 36.8868 12.6977 37.0003H12.191Z" fill="#B4B2C8"/>
<path d="M32.0644 14.09C32.0401 14.1164 32.02 14.1463 32.0046 14.1788C31.9449 14.3885 31.8239 14.5751 31.6576 14.7145C31.4913 14.8539 31.2875 14.9395 31.0724 14.9602C30.8521 14.9954 30.6264 14.9632 30.4244 14.8675C30.2225 14.7719 30.0535 14.6174 29.9395 14.4239C29.2034 13.3121 28.339 12.2926 27.3644 11.387C23.7866 8.09797 19.586 6.50317 14.7593 6.90098C9.48229 7.33786 5.36272 9.89167 2.2915 14.2072C2.1977 14.3892 2.06779 14.5496 1.90981 14.6786C1.75182 14.8075 1.56903 14.9022 1.37318 14.9567C1.14944 15.0013 0.917698 14.9766 0.708052 14.886C0.498405 14.7954 0.320672 14.643 0.198215 14.4487C0.0640356 14.2602 -0.0053886 14.0326 0.000326603 13.8005C0.00604181 13.5684 0.0865287 13.3445 0.229822 13.163C1.05067 12.0562 1.93151 10.9961 2.86833 9.98757C5.45237 7.36287 8.76454 5.59175 12.367 4.90837C18.1998 3.78242 23.4242 5.17831 28.0468 8.9149C29.4761 10.0852 30.7257 11.4629 31.7548 13.0031C31.8674 13.1665 31.9659 13.3583 32.0714 13.5146L32.0644 14.09Z" fill="#B4B2C8"/>
<path d="M16.9018 0C21.236 0.0674858 25.7638 1.83632 29.6441 5.29941C29.819 5.42774 29.9562 5.60153 30.0411 5.80229C30.126 6.00306 30.1554 6.22329 30.1261 6.43957C29.9714 7.37371 28.9545 7.7147 28.1981 7.10377C27.4417 6.49285 26.7277 5.87127 25.9361 5.32783C22.8019 3.18348 19.0614 2.12746 15.2801 2.31938C11.2601 2.48894 7.41576 4.02897 4.37423 6.6882C4.20889 6.83028 4.05414 6.9759 3.88879 7.11443C3.66328 7.31691 3.36789 7.42181 3.06649 7.40653C2.76509 7.39125 2.48179 7.25701 2.27751 7.03274C2.17381 6.91948 2.09389 6.78621 2.04252 6.64095C1.99115 6.49569 1.96942 6.34144 1.97862 6.18748C1.98782 6.03352 2.02765 5.88304 2.09594 5.74507C2.16424 5.6071 2.2595 5.4845 2.37594 5.38466C3.97926 3.90635 5.80731 2.69754 7.79021 1.80436C10.3654 0.618029 13.2079 0 16.9018 0Z" fill="#B4B2C8"/>
<path d="M23.7271 34.7377C22.1417 34.6258 20.6336 34.0033 19.4246 32.9618C16.575 30.6459 14.9602 27.6695 14.83 23.9329C14.8054 23.1621 15.2664 22.6329 15.9454 22.6222C16.6244 22.6116 17.0781 23.1302 17.1204 23.8938C17.2963 27.3285 18.8196 29.9675 21.7149 31.7825C22.3816 32.1869 23.1397 32.4119 23.9171 32.4361C24.0721 32.4359 24.2255 32.4675 24.368 32.5291C24.5105 32.5906 24.6393 32.6808 24.7463 32.794C24.8532 32.9073 24.9362 33.0414 24.9902 33.1881C25.0442 33.3347 25.0681 33.491 25.0604 33.6473C25.047 33.8085 25.0015 33.9654 24.9265 34.1084C24.8515 34.2514 24.7487 34.3776 24.6241 34.4795C24.4996 34.5813 24.3559 34.6567 24.2017 34.7011C24.0476 34.7455 23.8861 34.7579 23.7271 34.7377Z" fill="#B4B2C8"/>
</svg>
