<svg width="118" height="118" viewBox="0 0 118 118" fill="none" xmlns="http://www.w3.org/2000/svg">
<ellipse cx="58.8823" cy="58.6293" rx="58.8823" ry="58.6293" fill="#C9EFFB"/>
<path d="M64.5505 86.6025C57.1385 84.0974 52.4936 78.9603 49.9158 72.0243C49.2043 70.2559 48.9691 68.3434 49.232 66.4643C49.495 64.5852 50.2477 62.8004 51.4201 61.2755C53.8257 58.042 57.1614 56.6515 61.2493 57.4516C65.3371 58.2517 67.9952 60.8175 69.0631 64.7076C69.4133 65.9878 69.3388 67.3728 69.4421 68.7136C69.4714 69.5982 69.7405 70.4601 70.2229 71.214C70.7052 71.9679 71.3841 72.5877 72.1922 73.012C72.9118 73.3914 73.7156 73.5992 74.5361 73.618C75.3566 73.6368 76.1697 73.466 76.9072 73.12C77.6448 72.7739 78.285 72.2628 78.7743 71.6295C79.2636 70.9962 79.5877 70.2592 79.719 69.4806C80.0032 67.4724 79.8823 65.4304 79.363 63.4661C77.9908 57.3082 74.6494 52.4304 68.9311 49.2466C65.2065 47.2167 60.8961 46.4058 56.65 46.9363C52.404 47.4669 48.4525 49.3099 45.3917 52.1876C41.5421 55.7633 39.1948 60.5746 38.7967 65.7057C38.3987 70.8367 39.9775 75.9293 43.2328 80.0142C43.4591 80.2339 43.6311 80.4998 43.7355 80.7922C43.8398 81.0845 43.8741 81.3958 43.8358 81.7027C43.7892 82.0499 43.6325 82.3749 43.387 82.6335C43.1415 82.8922 42.819 83.0719 42.4636 83.1484C42.0944 83.2476 41.7023 83.2334 41.3419 83.1078C40.9816 82.9821 40.6711 82.7513 40.4541 82.4476C38.5978 80.2257 37.19 77.6899 36.3031 74.9709C33.5645 66.3078 35.0688 58.3731 41.0857 51.3985C43.0898 48.9927 45.605 47.0256 48.4633 45.6287C51.3217 44.2318 54.4575 43.4373 57.6609 43.2983C66.9791 42.7796 74.1097 46.609 79.2539 53.9257C82.2985 58.327 83.8103 63.5438 83.5714 68.824C83.4958 70.985 82.5854 73.0414 81.0175 74.5921C79.4497 76.1428 77.3369 77.0765 75.0915 77.2111C72.8827 77.3011 70.7175 76.6022 69.0129 75.2493C67.3084 73.8963 66.185 71.9849 65.8594 69.8834C65.6757 68.686 65.7563 67.4555 65.6127 66.2471C65.1706 62.495 61.0885 59.9071 57.4944 61.1321C54.9625 61.9928 53.6707 63.9241 53.1425 66.352C52.6143 68.7798 53.2343 70.9263 54.2907 73.0341C56.1873 76.7514 59.1288 79.8842 62.7822 82.0779C63.579 82.6197 64.5089 82.9525 65.4804 83.0435C65.871 83.0863 66.236 83.2526 66.5176 83.5163C66.7993 83.7799 66.9818 84.126 67.0366 84.5002C67.1126 84.8805 67.0549 85.2742 66.8731 85.6197C66.6913 85.9652 66.3955 86.2429 66.0318 86.4094L65.6183 86.6025H64.5505Z" fill="#26B4DF"/>
<path d="M52.993 86.6027C52.5177 86.3248 52.0718 86.0032 51.6611 85.6426C48.1761 81.9898 45.2423 78.0004 43.3477 73.3488C41.7521 69.4558 41.7017 65.1348 43.2061 61.2083C44.7105 57.2819 47.6645 54.0242 51.506 52.0553C55.4219 50.1075 59.9732 49.702 64.195 50.9247C68.4167 52.1474 71.977 54.9022 74.1212 58.605C75.643 61.1463 76.4577 64.0216 76.4867 66.9536C76.4867 68.173 75.8149 68.9842 74.7068 69.0173C73.5987 69.0504 72.7892 68.2668 72.7548 67.0253C72.7517 65.1592 72.3411 63.3145 71.5499 61.6103C70.7588 59.9062 69.6047 58.3805 68.1617 57.1318C66.6453 55.8053 64.8281 54.8364 62.8544 54.302C60.8807 53.7676 58.8047 53.6822 56.7907 54.0527C54.7767 54.4233 52.8803 55.2395 51.2515 56.4367C49.6227 57.6339 48.3062 59.1792 47.4067 60.9501C45.3111 64.934 45.3801 68.9676 47.2345 73.0177C49.0716 76.8461 51.559 80.3537 54.5948 83.3968C55.3871 84.2245 55.5079 85.2398 54.8132 85.9571C54.5101 86.2096 54.1766 86.4264 53.82 86.6027H52.993Z" fill="#26B4DF"/>
<path d="M85.4255 51.0125C85.3859 51.0535 85.353 51.1 85.328 51.1504C85.2304 51.4762 85.033 51.7662 84.7617 51.9827C84.4903 52.1992 84.1576 52.3322 83.8066 52.3644C83.4471 52.4191 83.0787 52.3689 82.7491 52.2204C82.4196 52.0719 82.1439 51.8318 81.9577 51.5312C80.7565 49.804 79.3458 48.2203 77.7552 46.8134C71.9163 41.7039 65.0611 39.2263 57.184 39.8443C48.5721 40.523 41.849 44.4904 36.8368 51.1946C36.6838 51.4772 36.4718 51.7265 36.2139 51.9268C35.9561 52.1272 35.6578 52.2742 35.3382 52.3589C34.973 52.4281 34.5948 52.3899 34.2527 52.2491C33.9106 52.1083 33.6205 51.8716 33.4206 51.5698C33.2017 51.2769 33.0884 50.9233 33.0977 50.5627C33.107 50.2022 33.2384 49.8544 33.4722 49.5723C34.8118 47.853 36.2494 46.2061 37.7782 44.6394C41.9953 40.5619 47.4007 37.8104 53.2798 36.7488C62.7989 34.9996 71.3249 37.1682 78.869 42.973C81.2015 44.791 83.2408 46.9313 84.9203 49.324C85.1041 49.5779 85.2648 49.8758 85.437 50.1186L85.4255 51.0125Z" fill="#26B4DF"/>
<path d="M60.6804 29.123C67.7537 29.2279 75.1429 31.9758 81.4756 37.3557C81.761 37.5551 81.985 37.825 82.1235 38.1369C82.262 38.4488 82.3099 38.7909 82.2622 39.1269C82.0096 40.5781 80.3501 41.1079 79.1157 40.1588C77.8813 39.2097 76.716 38.2441 75.4242 37.3999C70.3092 34.0686 64.2048 32.4281 58.0338 32.7262C51.4733 32.9896 45.1994 35.3821 40.2357 39.5132C39.9659 39.7339 39.7133 39.9601 39.4435 40.1753C39.0754 40.4899 38.5934 40.6529 38.1015 40.6291C37.6096 40.6054 37.1473 40.3968 36.8139 40.0484C36.6447 39.8725 36.5142 39.6654 36.4304 39.4398C36.3466 39.2141 36.3111 38.9745 36.3261 38.7353C36.3411 38.4962 36.4061 38.2624 36.5176 38.048C36.629 37.8337 36.7845 37.6432 36.9745 37.4881C39.5911 35.1916 42.5744 33.3137 45.8105 31.9261C50.0131 30.0832 54.6521 29.123 60.6804 29.123Z" fill="#26B4DF"/>
<path d="M71.819 83.0876C69.2315 82.9137 66.7704 81.9467 64.7973 80.3286C60.1469 76.731 57.5116 72.107 57.2991 66.3022C57.259 65.1048 58.0113 64.2827 59.1194 64.2661C60.2274 64.2496 60.968 65.0552 61.0369 66.2415C61.324 71.5773 63.81 75.6771 68.5351 78.4967C69.6231 79.1249 70.8604 79.4744 72.129 79.512C72.382 79.5117 72.6323 79.5608 72.8649 79.6564C73.0975 79.752 73.3077 79.8921 73.4822 80.0681C73.6567 80.2441 73.7921 80.4523 73.8803 80.6802C73.9685 80.908 74.0074 81.1508 73.9949 81.3936C73.973 81.6441 73.8987 81.8877 73.7763 82.1099C73.6539 82.3321 73.4861 82.5281 73.2829 82.6864C73.0796 82.8446 72.8451 82.9617 72.5935 83.0306C72.342 83.0996 72.0785 83.119 71.819 83.0876V83.0876Z" fill="white"/>
</svg>
