<svg width="52" height="42" viewBox="0 0 52 42" fill="none" xmlns="http://www.w3.org/2000/svg">
<path d="M33.3666 24.109H32.3142V23.0566C32.3142 22.2193 31.9815 21.4162 31.3894 20.8241C30.7973 20.232 29.9943 19.8994 29.157 19.8994H18.6329C17.7955 19.8994 16.9925 20.232 16.4004 20.8241C15.8083 21.4162 15.4757 22.2193 15.4757 23.0566V35.6855C15.4757 36.5229 15.8083 37.3259 16.4004 37.918C16.9925 38.5101 17.7955 38.8427 18.6329 38.8427H33.3666C34.2039 38.8427 35.007 38.5101 35.5991 37.918C36.1912 37.3259 36.5238 36.5229 36.5238 35.6855V27.2663C36.5238 26.4289 36.1912 25.6259 35.5991 25.0338C35.007 24.4417 34.2039 24.109 33.3666 24.109ZM18.6329 22.0042H29.157C29.4361 22.0042 29.7038 22.1151 29.9011 22.3125C30.0985 22.5098 30.2094 22.7775 30.2094 23.0566V24.109H18.6329C18.3538 24.109 18.0861 23.9982 17.8887 23.8008C17.6914 23.6034 17.5805 23.3357 17.5805 23.0566C17.5805 22.7775 17.6914 22.5098 17.8887 22.3125C18.0861 22.1151 18.3538 22.0042 18.6329 22.0042ZM34.419 32.5283H33.3666C33.0875 32.5283 32.8198 32.4174 32.6224 32.22C32.425 32.0227 32.3142 31.755 32.3142 31.4759C32.3142 31.1968 32.425 30.9291 32.6224 30.7317C32.8198 30.5344 33.0875 30.4235 33.3666 30.4235H34.419V32.5283ZM34.419 28.3187H33.3666C32.5292 28.3187 31.7262 28.6513 31.1341 29.2434C30.542 29.8355 30.2094 30.6385 30.2094 31.4759C30.2094 32.3132 30.542 33.1163 31.1341 33.7084C31.7262 34.3005 32.5292 34.6331 33.3666 34.6331H34.419V35.6855C34.419 35.9646 34.3081 36.2323 34.1107 36.4297C33.9134 36.627 33.6457 36.7379 33.3666 36.7379H18.6329C18.3538 36.7379 18.0861 36.627 17.8887 36.4297C17.6914 36.2323 17.5805 35.9646 17.5805 35.6855V26.0349C17.9186 26.1539 18.2745 26.2144 18.6329 26.2139H33.3666C33.6457 26.2139 33.9134 26.3247 34.1107 26.5221C34.3081 26.7195 34.419 26.9871 34.419 27.2663V28.3187Z" fill="#2BAA4B"/>
<g clip-path="url(#clip0_2180_641)">
<path d="M27.5317 19.9519C27.1254 20.1356 26.5744 20.2388 25.9998 20.2388C25.4253 20.2388 24.8743 20.1356 24.468 19.9519L12.2113 14.4093C12.0043 14.319 11.8393 14.2109 11.7257 14.0913C11.6122 13.9718 11.5524 13.8432 11.5499 13.7131C11.5474 13.583 11.6022 13.454 11.7111 13.3336C11.8201 13.2132 11.981 13.1038 12.1844 13.0118C12.3878 12.9198 12.6297 12.8471 12.896 12.7978C13.1623 12.7485 13.4476 12.7237 13.7353 12.7249C14.023 12.726 14.3073 12.753 14.5716 12.8044C14.836 12.8557 15.075 12.9304 15.2749 13.024L23.8332 16.894V3.91896C23.8332 3.65911 24.0615 3.4099 24.4678 3.22615C24.8741 3.04241 25.4252 2.93919 25.9998 2.93919C26.5745 2.93919 27.1256 3.04241 27.5319 3.22615C27.9382 3.4099 28.1665 3.65911 28.1665 3.91896V16.894L36.7248 13.024C37.1334 12.8455 37.6807 12.7467 38.2488 12.749C38.8169 12.7512 39.3603 12.8542 39.762 13.0359C40.1638 13.2175 40.3916 13.4633 40.3966 13.7202C40.4015 13.9771 40.1831 14.2246 39.7884 14.4093L27.5317 19.9519Z" fill="#2BAA4B"/>
</g>
<defs>
<clipPath id="clip0_2180_641">
<rect width="51.9997" height="23.5145" fill="white" transform="matrix(1 0 0 -1 0 23.5144)"/>
</clipPath>
</defs>
</svg>
