<svg width="88" height="88" viewBox="0 0 88 88" fill="none" xmlns="http://www.w3.org/2000/svg">
<path d="M52.3222 25.4249L56.0915 36.1839C58.6937 43.6113 54.7819 51.7421 47.3544 54.3442C39.9269 56.9464 31.7962 53.0346 29.1941 45.6071L25.4248 34.8481C22.8226 27.4206 26.7344 19.2899 34.1619 16.6878C41.5893 14.0856 49.7201 17.9974 52.3222 25.4249Z" stroke="#141B34" stroke-width="3.20629"/>
<path d="M52.3218 25.4234L44.2526 28.2504M56.0911 36.1824L48.0219 39.0094" stroke="#141B34" stroke-width="3.20629" stroke-linecap="round"/>
<path d="M64.1607 33.3568C68.3242 45.2409 62.0655 58.2499 50.1813 62.4134M50.1813 62.4134C38.2973 66.5769 25.2882 60.3181 21.1248 48.434M50.1813 62.4134L53.0083 70.4827M53.0083 70.4827L61.0776 67.6557M53.0083 70.4827L44.9391 73.3096" stroke="#141B34" stroke-width="3.20629" stroke-linecap="round"/>
</svg>
