<svg width="34" height="39" viewBox="0 0 34 39" fill="none" xmlns="http://www.w3.org/2000/svg">
<path d="M25.1259 19.2655H23.9651V18.1046C23.9651 17.181 23.5982 16.2952 22.9451 15.6421C22.292 14.989 21.4062 14.6221 20.4825 14.6221H8.87409C7.95047 14.6221 7.06467 14.989 6.41157 15.6421C5.75846 16.2952 5.39156 17.181 5.39156 18.1046V32.0347C5.39156 32.9584 5.75846 33.8442 6.41157 34.4973C7.06467 35.1504 7.95047 35.5173 8.87409 35.5173H25.1259C26.0495 35.5173 26.9353 35.1504 27.5884 34.4973C28.2415 33.8442 28.6085 32.9584 28.6085 32.0347V22.748C28.6085 21.8244 28.2415 20.9386 27.5884 20.2855C26.9353 19.6324 26.0495 19.2655 25.1259 19.2655ZM8.87409 16.9438H20.4825C20.7904 16.9438 21.0857 17.0661 21.3034 17.2838C21.5211 17.5015 21.6434 17.7967 21.6434 18.1046V19.2655H8.87409C8.56622 19.2655 8.27095 19.1431 8.05325 18.9254C7.83555 18.7077 7.71325 18.4125 7.71325 18.1046C7.71325 17.7967 7.83555 17.5015 8.05325 17.2838C8.27095 17.0661 8.56622 16.9438 8.87409 16.9438ZM26.2868 28.5522H25.1259C24.818 28.5522 24.5228 28.4299 24.3051 28.2122C24.0874 27.9945 23.9651 27.6992 23.9651 27.3914C23.9651 27.0835 24.0874 26.7882 24.3051 26.5705C24.5228 26.3528 24.818 26.2305 25.1259 26.2305H26.2868V28.5522ZM26.2868 23.9088H25.1259C24.2023 23.9088 23.3165 24.2757 22.6634 24.9288C22.0103 25.5819 21.6434 26.4677 21.6434 27.3914C21.6434 28.315 22.0103 29.2008 22.6634 29.8539C23.3165 30.507 24.2023 30.8739 25.1259 30.8739H26.2868V32.0347C26.2868 32.3426 26.1645 32.6379 25.9468 32.8556C25.7291 33.0733 25.4338 33.1956 25.1259 33.1956H8.87409C8.56622 33.1956 8.27095 33.0733 8.05325 32.8556C7.83555 32.6379 7.71325 32.3426 7.71325 32.0347V21.3898C8.08619 21.521 8.47875 21.5877 8.87409 21.5871H25.1259C25.4338 21.5871 25.7291 21.7094 25.9468 21.9271C26.1645 22.1448 26.2868 22.4401 26.2868 22.748V23.9088Z" fill="#DD2828"/>
<g clip-path="url(#clip0_2017_2631)">
<path d="M18.0016 3.31451C17.7359 3.14361 17.3756 3.04761 17 3.04761C16.6244 3.04761 16.2641 3.14361 15.9984 3.31451L7.98433 8.47135C7.84903 8.55544 7.7411 8.65602 7.66686 8.76724C7.59261 8.87846 7.55353 8.99808 7.5519 9.11912C7.55026 9.24016 7.58611 9.36019 7.65734 9.47222C7.72857 9.58425 7.83376 9.68603 7.96677 9.77163C8.09979 9.85722 8.25796 9.92491 8.43207 9.97074C8.60617 10.0166 8.79271 10.0396 8.98082 10.0386C9.16892 10.0375 9.35482 10.0124 9.52766 9.96461C9.7005 9.91684 9.85682 9.84739 9.9875 9.76033L15.5833 6.15956V18.2317C15.5833 18.4735 15.7326 18.7053 15.9983 18.8763C16.2639 19.0472 16.6243 19.1433 17 19.1433C17.3757 19.1433 17.7361 19.0472 18.0017 18.8763C18.2674 18.7053 18.4167 18.4735 18.4167 18.2317V6.15956L24.0125 9.76033C24.2797 9.92638 24.6375 10.0183 25.009 10.0162C25.3804 10.0141 25.7357 9.91824 25.9984 9.74922C26.2611 9.58021 26.4101 9.35157 26.4133 9.11256C26.4165 8.87354 26.2737 8.64327 26.0157 8.47135L18.0016 3.31451Z" fill="#DD2828"/>
</g>
<defs>
<clipPath id="clip0_2017_2631">
<rect width="34" height="21.878" fill="white"/>
</clipPath>
</defs>
</svg>
