<svg width="207" height="201" viewBox="0 0 207 201" fill="none" xmlns="http://www.w3.org/2000/svg">
<path fill-rule="evenodd" clip-rule="evenodd" d="M205.336 171.823C206.255 171.823 207 172.548 207 173.444L207 186.411C207 194.468 200.295 201 192.024 201L178.712 201C177.793 201 177.048 200.274 177.048 199.379C177.048 198.484 177.793 197.758 178.712 197.758L192.024 197.758C198.457 197.758 203.672 192.678 203.672 186.411L203.672 173.444C203.672 172.548 204.417 171.823 205.336 171.823Z" fill="#26B4DF"/>
<path fill-rule="evenodd" clip-rule="evenodd" d="M1.66399 171.823C0.744992 171.823 3.25647e-08 172.548 7.27352e-08 173.444L6.54617e-07 186.411C1.01615e-06 194.468 6.70493 201 14.9759 201L28.2878 201C29.2068 201 29.9518 200.274 29.9518 199.379C29.9518 198.484 29.2068 197.758 28.2878 197.758L14.9759 197.758C8.54292 197.758 3.32798 192.678 3.32798 186.411L3.32797 173.444C3.32797 172.548 2.58298 171.823 1.66399 171.823Z" fill="#26B4DF"/>
<path fill-rule="evenodd" clip-rule="evenodd" d="M205.336 29.1774C206.255 29.1774 207 28.4516 207 27.5564L207 14.5887C207 6.53154 200.295 -4.99016e-05 192.024 -4.95494e-05L178.712 -4.89826e-05C177.793 -4.89434e-05 177.048 0.725684 177.048 1.62092C177.048 2.51616 177.793 3.24189 178.712 3.24189L192.024 3.24189C198.457 3.24189 203.672 8.32201 203.672 14.5887L203.672 27.5564C203.672 28.4516 204.417 29.1774 205.336 29.1774Z" fill="#21A2DC"/>
<path fill-rule="evenodd" clip-rule="evenodd" d="M1.66399 29.1774C0.744992 29.1774 3.25647e-08 28.4516 7.27352e-08 27.5564L6.54617e-07 14.5887C1.01615e-06 6.53154 6.70493 -4.99016e-05 14.9759 -4.95494e-05L28.2878 -4.89826e-05C29.2068 -4.89434e-05 29.9518 0.725684 29.9518 1.62092C29.9518 2.51616 29.2068 3.24189 28.2878 3.24189L14.9759 3.24189C8.54292 3.24189 3.32798 8.32201 3.32798 14.5887L3.32797 27.5564C3.32797 28.4516 2.58298 29.1774 1.66399 29.1774Z" fill="#21A2DC"/>
<rect x="15.3087" y="14.2645" width="177.048" height="172.471" rx="10" fill="#FCFBFF"/>
<rect x="31.8442" y="29.8806" width="22.7839" height="22.0915" stroke="#23303B" stroke-width="4"/>
<rect x="35.7501" y="33.6855" width="14.972" height="14.4815" fill="#C4C4C4" stroke="#23303B" stroke-width="4"/>
<rect x="157.394" y="152.185" width="14.972" height="14.4815" fill="#C4C4C4" stroke="#23303B" stroke-width="4"/>
<rect x="39.6559" y="155.446" width="7.71797" height="7.41502" fill="#C4C4C4" stroke="#23303B" stroke-width="4"/>
<rect x="157.068" y="33.3165" width="16.182" height="15.7636" fill="#C4C4C4"/>
<rect x="31.8442" y="148.38" width="22.7839" height="22.0915" stroke="#23303B" stroke-width="4"/>
<rect x="153.488" y="148.38" width="22.7839" height="22.0915" stroke="#23303B" stroke-width="4"/>
<rect x="153.488" y="29.8806" width="22.7839" height="22.0915" stroke="#23303B" stroke-width="4"/>
<ellipse cx="62.4869" cy="35.7623" rx="4.18499" ry="4.07679" fill="#23303B"/>
<ellipse cx="72.5311" cy="35.7623" rx="4.18499" ry="4.07679" fill="#23303B"/>
<ellipse cx="82.5748" cy="35.7623" rx="4.18499" ry="4.07679" fill="#23303B"/>
<ellipse cx="92.6189" cy="35.7623" rx="4.18499" ry="4.07679" fill="#23303B"/>
<ellipse cx="102.663" cy="35.7623" rx="4.18499" ry="4.07679" fill="#23303B"/>
<ellipse cx="112.707" cy="35.7623" rx="4.18499" ry="4.07679" fill="#23303B"/>
<ellipse cx="122.751" cy="35.7623" rx="4.18499" ry="4.07679" fill="#23303B"/>
<ellipse cx="132.795" cy="35.7623" rx="4.18499" ry="4.07679" fill="#23303B"/>
<ellipse cx="142.839" cy="46.0905" rx="4.18499" ry="4.07679" fill="#23303B"/>
<ellipse cx="142.839" cy="56.4183" rx="4.18499" ry="4.07679" fill="#23303B"/>
<ellipse cx="152.883" cy="60.7672" rx="4.18499" ry="4.07679" fill="#23303B"/>
<ellipse cx="163.485" cy="60.7672" rx="4.18499" ry="4.07679" fill="#23303B"/>
<ellipse cx="170.181" cy="68.9203" rx="4.18499" ry="4.07679" fill="#23303B"/>
<ellipse cx="170.181" cy="79.7916" rx="4.18499" ry="4.07679" fill="#23303B"/>
<ellipse cx="170.739" cy="90.6636" rx="4.18499" ry="4.07679" fill="#23303B"/>
<ellipse cx="170.739" cy="112.406" rx="4.18499" ry="4.07679" fill="#23303B"/>
<ellipse cx="170.739" cy="123.278" rx="4.18499" ry="4.07679" fill="#23303B"/>
<ellipse cx="170.739" cy="134.149" rx="4.18499" ry="4.07679" fill="#23303B"/>
<ellipse cx="163.485" cy="141.215" rx="4.18499" ry="4.07679" fill="#23303B"/>
<ellipse cx="152.883" cy="141.215" rx="4.18499" ry="4.07679" fill="#23303B"/>
<ellipse cx="142.839" cy="150.456" rx="4.18499" ry="4.07679" fill="#23303B"/>
<ellipse cx="142.839" cy="160.784" rx="4.18499" ry="4.07679" fill="#23303B"/>
<ellipse cx="134.469" cy="165.133" rx="4.18499" ry="4.07679" fill="#23303B"/>
<ellipse cx="122.751" cy="165.133" rx="4.18499" ry="4.07679" fill="#23303B"/>
<ellipse cx="99.3149" cy="165.133" rx="4.18499" ry="4.07679" fill="#23303B"/>
<ellipse cx="87.597" cy="165.133" rx="4.18499" ry="4.07679" fill="#23303B"/>
<ellipse cx="75.8791" cy="165.133" rx="4.18499" ry="4.07679" fill="#23303B"/>
<ellipse cx="64.1609" cy="165.133" rx="4.18499" ry="4.07679" fill="#23303B"/>
<ellipse cx="64.1609" cy="154.262" rx="4.18499" ry="4.07679" fill="#23303B"/>
<ellipse cx="64.1609" cy="143.39" rx="4.18499" ry="4.07679" fill="#23303B"/>
<ellipse cx="53.5588" cy="139.585" rx="4.18499" ry="4.07679" fill="#23303B"/>
<ellipse cx="41.8409" cy="141.215" rx="4.18499" ry="4.07679" fill="#23303B"/>
<ellipse cx="37.377" cy="131.975" rx="4.18499" ry="4.07679" fill="#23303B"/>
<ellipse cx="37.377" cy="104.253" rx="4.18499" ry="4.07679" fill="#23303B"/>
<ellipse cx="37.377" cy="95.0117" rx="4.18499" ry="4.07679" fill="#23303B"/>
<ellipse cx="37.377" cy="85.7709" rx="4.18499" ry="4.07679" fill="#23303B"/>
<ellipse cx="37.377" cy="76.5307" rx="4.18499" ry="4.07679" fill="#23303B"/>
<ellipse cx="37.377" cy="67.2898" rx="4.18499" ry="4.07679" fill="#23303B"/>
<ellipse cx="47.4211" cy="76.5307" rx="4.18499" ry="4.07679" fill="#23303B"/>
<ellipse cx="47.4211" cy="95.0117" rx="4.18499" ry="4.07679" fill="#23303B"/>
<ellipse cx="47.4211" cy="104.253" rx="4.18499" ry="4.07679" fill="#23303B"/>
<ellipse cx="47.4211" cy="113.493" rx="4.18499" ry="4.07679" fill="#23303B"/>
<ellipse cx="47.4211" cy="122.734" rx="4.18499" ry="4.07679" fill="#23303B"/>
<ellipse cx="47.4211" cy="131.975" rx="4.18499" ry="4.07679" fill="#23303B"/>
<ellipse cx="57.465" cy="67.2898" rx="4.18499" ry="4.07679" fill="#23303B"/>
<ellipse cx="57.465" cy="85.7709" rx="4.18499" ry="4.07679" fill="#23303B"/>
<ellipse cx="57.465" cy="95.0117" rx="4.18499" ry="4.07679" fill="#23303B"/>
<ellipse cx="57.465" cy="104.253" rx="4.18499" ry="4.07679" fill="#23303B"/>
<ellipse cx="57.465" cy="113.493" rx="4.18499" ry="4.07679" fill="#23303B"/>
<ellipse cx="57.465" cy="122.734" rx="4.18499" ry="4.07679" fill="#23303B"/>
<ellipse cx="57.465" cy="131.975" rx="4.18499" ry="4.07679" fill="#23303B"/>
<ellipse cx="67.5091" cy="67.2898" rx="4.18499" ry="4.07679" fill="#23303B"/>
<ellipse cx="67.5091" cy="76.5307" rx="4.18499" ry="4.07679" fill="#23303B"/>
<ellipse cx="67.5091" cy="85.7709" rx="4.18499" ry="4.07679" fill="#23303B"/>
<ellipse cx="67.5091" cy="95.0117" rx="4.18499" ry="4.07679" fill="#23303B"/>
<ellipse cx="67.5091" cy="104.253" rx="4.18499" ry="4.07679" fill="#23303B"/>
<ellipse cx="67.5091" cy="113.493" rx="4.18499" ry="4.07679" fill="#23303B"/>
<ellipse cx="67.5091" cy="58.049" rx="4.18499" ry="4.07679" fill="#23303B"/>
<ellipse cx="77.5529" cy="67.2898" rx="4.18499" ry="4.07679" fill="#23303B"/>
<ellipse cx="77.5529" cy="76.5307" rx="4.18499" ry="4.07679" fill="#23303B"/>
<ellipse cx="77.5529" cy="85.7709" rx="4.18499" ry="4.07679" fill="#23303B"/>
<ellipse cx="77.5529" cy="104.253" rx="4.18499" ry="4.07679" fill="#23303B"/>
<ellipse cx="77.5529" cy="122.734" rx="4.18499" ry="4.07679" fill="#23303B"/>
<ellipse cx="77.5529" cy="131.975" rx="4.18499" ry="4.07679" fill="#23303B"/>
<ellipse cx="77.5529" cy="141.215" rx="4.18499" ry="4.07679" fill="#23303B"/>
<ellipse cx="77.5529" cy="150.456" rx="4.18499" ry="4.07679" fill="#23303B"/>
<ellipse cx="82.5748" cy="46.0905" rx="4.18499" ry="4.07679" fill="#23303B"/>
<ellipse cx="87.597" cy="67.2898" rx="4.18499" ry="4.07679" fill="#23303B"/>
<ellipse cx="87.597" cy="76.5307" rx="4.18499" ry="4.07679" fill="#23303B"/>
<ellipse cx="87.597" cy="85.7709" rx="4.18499" ry="4.07679" fill="#23303B"/>
<ellipse cx="87.597" cy="95.0117" rx="4.18499" ry="4.07679" fill="#23303B"/>
<ellipse cx="87.597" cy="104.253" rx="4.18499" ry="4.07679" fill="#23303B"/>
<ellipse cx="87.597" cy="113.493" rx="4.18499" ry="4.07679" fill="#23303B"/>
<ellipse cx="87.597" cy="122.734" rx="4.18499" ry="4.07679" fill="#23303B"/>
<ellipse cx="87.597" cy="131.975" rx="4.18499" ry="4.07679" fill="#23303B"/>
<ellipse cx="87.597" cy="141.215" rx="4.18499" ry="4.07679" fill="#23303B"/>
<ellipse cx="87.597" cy="150.456" rx="4.18499" ry="4.07679" fill="#23303B"/>
<ellipse cx="87.597" cy="58.049" rx="4.18499" ry="4.07679" fill="#23303B"/>
<ellipse cx="92.6189" cy="46.0905" rx="4.18499" ry="4.07679" fill="#23303B"/>
<ellipse cx="97.6409" cy="67.2898" rx="4.18499" ry="4.07679" fill="#23303B"/>
<ellipse cx="97.6409" cy="85.7709" rx="4.18499" ry="4.07679" fill="#23303B"/>
<ellipse cx="97.6409" cy="95.0117" rx="4.18499" ry="4.07679" fill="#23303B"/>
<ellipse cx="97.6409" cy="104.253" rx="4.18499" ry="4.07679" fill="#23303B"/>
<ellipse cx="97.6409" cy="113.493" rx="4.18499" ry="4.07679" fill="#23303B"/>
<ellipse cx="97.6409" cy="131.975" rx="4.18499" ry="4.07679" fill="#23303B"/>
<ellipse cx="97.6409" cy="141.215" rx="4.18499" ry="4.07679" fill="#23303B"/>
<ellipse cx="97.6409" cy="150.456" rx="4.18499" ry="4.07679" fill="#23303B"/>
<ellipse cx="97.6409" cy="58.049" rx="4.18499" ry="4.07679" fill="#23303B"/>
<ellipse cx="102.663" cy="46.0905" rx="4.18499" ry="4.07679" fill="#23303B"/>
<ellipse cx="107.685" cy="67.2898" rx="4.18499" ry="4.07679" fill="#23303B"/>
<ellipse cx="107.685" cy="76.5307" rx="4.18499" ry="4.07679" fill="#23303B"/>
<ellipse cx="107.685" cy="85.7709" rx="4.18499" ry="4.07679" fill="#23303B"/>
<ellipse cx="107.685" cy="95.0117" rx="4.18499" ry="4.07679" fill="#23303B"/>
<ellipse cx="107.685" cy="104.253" rx="4.18499" ry="4.07679" fill="#23303B"/>
<ellipse cx="107.685" cy="113.493" rx="4.18499" ry="4.07679" fill="#23303B"/>
<ellipse cx="107.685" cy="122.734" rx="4.18499" ry="4.07679" fill="#23303B"/>
<ellipse cx="107.685" cy="131.975" rx="4.18499" ry="4.07679" fill="#23303B"/>
<ellipse cx="107.685" cy="58.049" rx="4.18499" ry="4.07679" fill="#23303B"/>
<ellipse cx="112.707" cy="46.0905" rx="4.18499" ry="4.07679" fill="#23303B"/>
<ellipse cx="117.729" cy="67.2898" rx="4.18499" ry="4.07679" fill="#23303B"/>
<ellipse cx="117.729" cy="85.7709" rx="4.18499" ry="4.07679" fill="#23303B"/>
<ellipse cx="117.729" cy="95.0117" rx="4.18499" ry="4.07679" fill="#23303B"/>
<ellipse cx="117.729" cy="104.253" rx="4.18499" ry="4.07679" fill="#23303B"/>
<ellipse cx="117.729" cy="141.215" rx="4.18499" ry="4.07679" fill="#23303B"/>
<ellipse cx="117.729" cy="150.456" rx="4.18499" ry="4.07679" fill="#23303B"/>
<ellipse cx="127.773" cy="67.2898" rx="4.18499" ry="4.07679" fill="#23303B"/>
<ellipse cx="127.773" cy="76.5307" rx="4.18499" ry="4.07679" fill="#23303B"/>
<ellipse cx="127.773" cy="85.7709" rx="4.18499" ry="4.07679" fill="#23303B"/>
<ellipse cx="127.773" cy="104.253" rx="4.18499" ry="4.07679" fill="#23303B"/>
<ellipse cx="127.773" cy="113.493" rx="4.18499" ry="4.07679" fill="#23303B"/>
<ellipse cx="127.773" cy="122.734" rx="4.18499" ry="4.07679" fill="#23303B"/>
<ellipse cx="127.773" cy="131.975" rx="4.18499" ry="4.07679" fill="#23303B"/>
<ellipse cx="127.773" cy="141.215" rx="4.18499" ry="4.07679" fill="#23303B"/>
<ellipse cx="127.773" cy="150.456" rx="4.18499" ry="4.07679" fill="#23303B"/>
<ellipse cx="127.773" cy="58.049" rx="4.18499" ry="4.07679" fill="#23303B"/>
<ellipse cx="132.795" cy="46.0905" rx="4.18499" ry="4.07679" fill="#23303B"/>
<ellipse cx="137.817" cy="67.2898" rx="4.18499" ry="4.07679" fill="#23303B"/>
<ellipse cx="137.817" cy="76.5307" rx="4.18499" ry="4.07679" fill="#23303B"/>
<ellipse cx="147.303" cy="85.7709" rx="4.18499" ry="4.07679" fill="#23303B"/>
<ellipse cx="156.789" cy="85.7709" rx="4.18499" ry="4.07679" fill="#23303B"/>
<ellipse cx="137.817" cy="95.0117" rx="4.18499" ry="4.07679" fill="#23303B"/>
<ellipse cx="147.303" cy="95.0117" rx="4.18499" ry="4.07679" fill="#23303B"/>
<ellipse cx="156.789" cy="95.0117" rx="4.18499" ry="4.07679" fill="#23303B"/>
<ellipse cx="137.817" cy="104.253" rx="4.18499" ry="4.07679" fill="#23303B"/>
<ellipse cx="147.303" cy="104.253" rx="4.18499" ry="4.07679" fill="#23303B"/>
<ellipse cx="156.789" cy="104.253" rx="4.18499" ry="4.07679" fill="#23303B"/>
<ellipse cx="137.817" cy="113.493" rx="4.18499" ry="4.07679" fill="#23303B"/>
<ellipse cx="147.303" cy="113.493" rx="4.18499" ry="4.07679" fill="#23303B"/>
<ellipse cx="156.789" cy="113.493" rx="4.18499" ry="4.07679" fill="#23303B"/>
<ellipse cx="137.817" cy="122.734" rx="4.18499" ry="4.07679" fill="#23303B"/>
<ellipse cx="147.303" cy="122.734" rx="4.18499" ry="4.07679" fill="#23303B"/>
<ellipse cx="137.817" cy="131.975" rx="4.18499" ry="4.07679" fill="#23303B"/>
<ellipse cx="147.303" cy="131.975" rx="4.18499" ry="4.07679" fill="#23303B"/>
<ellipse cx="156.789" cy="131.975" rx="4.18499" ry="4.07679" fill="#23303B"/>
<ellipse cx="137.817" cy="141.215" rx="4.18499" ry="4.07679" fill="#23303B"/>
<ellipse cx="160.137" cy="74.9002" rx="4.18499" ry="4.07679" fill="#23303B"/>
<ellipse cx="37.377" cy="58.049" rx="4.18499" ry="4.07679" fill="#23303B"/>
<ellipse cx="47.4211" cy="58.049" rx="4.18499" ry="4.07679" fill="#23303B"/>
<ellipse cx="57.465" cy="58.049" rx="4.18499" ry="4.07679" fill="#23303B"/>
<ellipse cx="62.4869" cy="46.0905" rx="4.18499" ry="4.07679" fill="#23303B"/>
<ellipse cx="170.739" cy="101.535" rx="4.18499" ry="4.07679" fill="#23303B"/>
<rect x="29.9518" y="68.229" width="147.762" height="2.70568" fill="url(#paint0_linear_2042_807)"/>
<rect x="177.714" y="123.425" width="147.762" height="52.4901" transform="rotate(180 177.714 123.425)" fill="url(#paint1_linear_2042_807)" fill-opacity="0.6"/>
<defs>
<linearGradient id="paint0_linear_2042_807" x1="187.549" y1="69.672" x2="29.9518" y2="69.672" gradientUnits="userSpaceOnUse">
<stop offset="0.0154709" stop-color="#456EFE"/>
<stop offset="1" stop-color="#2DC688"/>
</linearGradient>
<linearGradient id="paint1_linear_2042_807" x1="335.311" y1="151.42" x2="177.714" y2="151.42" gradientUnits="userSpaceOnUse">
<stop offset="0.0154709" stop-color="#456EFE" stop-opacity="0.45"/>
<stop offset="1" stop-color="#2DC688" stop-opacity="0.45"/>
</linearGradient>
</defs>
</svg>
