<svg width="80" height="85" viewBox="0 0 80 85" fill="none" xmlns="http://www.w3.org/2000/svg">
<g filter="url(#filter0_d_1_22951)">
<path d="M36.4218 2.34462C38.6743 1.21816 41.3257 1.21816 43.5782 2.34462L57.92 9.51682L71.3022 18.3511C73.404 19.7386 74.7297 22.0348 74.8804 24.5487L75.84 40.5552L74.8804 56.5616C74.7297 59.0756 73.404 61.3718 71.3022 62.7593L57.92 71.5935L43.5782 78.7657C41.3257 79.8922 38.6743 79.8922 36.4218 78.7657L22.08 71.5935L8.69781 62.7593C6.59601 61.3718 5.27028 59.0756 5.11957 56.5616L4.16 40.5552L5.11957 24.5487C5.27028 22.0348 6.59601 19.7386 8.69781 18.3511L22.08 9.51682L36.4218 2.34462Z" fill="#EDFDF8"/>
<path d="M36.4218 7.34462C38.6743 6.21816 41.3257 6.21816 43.5782 7.34462L55.68 13.3966L66.9721 20.8511C69.0739 22.2386 70.3996 24.5348 70.5503 27.0487L71.36 40.5552L70.5503 54.0616C70.3996 56.5756 69.0739 58.8718 66.9721 60.2593L55.68 67.7137L43.5782 73.7657C41.3257 74.8922 38.6743 74.8922 36.4218 73.7657L24.32 67.7137L13.0279 60.2593C10.9261 58.8718 9.60041 56.5756 9.4497 54.0616L8.64 40.5552L9.4497 27.0487C9.60041 24.5348 10.9261 22.2386 13.0279 20.8511L24.32 13.3966L36.4218 7.34462Z" fill="#08875D"/>
<mask id="path-3-inside-1_1_22951" fill="white">
<path fill-rule="evenodd" clip-rule="evenodd" d="M48.2915 32.0878C48.8258 32.5249 48.9046 33.3125 48.4674 33.8468L37.9762 46.6693C37.1279 47.7062 35.6131 47.89 34.5413 47.0862L30.5 44.0552C29.9477 43.641 29.8357 42.8575 30.25 42.3052C30.6642 41.7529 31.4477 41.641 32 42.0552L36.0413 45.0862L46.5325 32.2637C46.9697 31.7294 47.7572 31.6506 48.2915 32.0878Z"/>
</mask>
<path d="M48.4674 33.8468L56.207 40.1791L56.207 40.1791L48.4674 33.8468ZM48.2915 32.0878L41.9591 39.8273L41.9591 39.8273L48.2915 32.0878ZM37.9762 46.6693L30.2366 40.3369L30.2366 40.337L37.9762 46.6693ZM34.5413 47.0862L28.5413 55.0862L28.5413 55.0862L34.5413 47.0862ZM30.5 44.0552L36.5 36.0552L36.5 36.0552L30.5 44.0552ZM32 42.0552L26 50.0552L26 50.0552L32 42.0552ZM36.0413 45.0862L30.0413 53.0862L37.7104 58.8381L43.7809 51.4186L36.0413 45.0862ZM46.5325 32.2637L54.2721 38.596L54.2721 38.596L46.5325 32.2637ZM48.4674 33.8468L56.207 40.1791C60.1414 35.3704 59.4326 28.2826 54.6239 24.3482L48.2915 32.0878L41.9591 39.8273C38.219 36.7672 37.6677 31.2545 40.7278 27.5144L48.4674 33.8468ZM37.9762 46.6693L45.7158 53.0017L56.207 40.1791L48.4674 33.8468L40.7278 27.5144L30.2366 40.3369L37.9762 46.6693ZM34.5413 47.0862L28.5413 55.0862C33.9 59.1052 41.4742 58.1859 45.7158 53.0017L37.9762 46.6693L30.2366 40.337C32.7816 37.2264 37.3261 36.6748 40.5413 39.0862L34.5413 47.0862ZM30.5 44.0552L24.5 52.0552L28.5413 55.0862L34.5413 47.0862L40.5413 39.0862L36.5 36.0552L30.5 44.0552ZM30.25 42.3052L22.25 36.3052C18.522 41.2758 19.5294 48.3273 24.5 52.0552L30.5 44.0552L36.5 36.0552C40.3659 38.9547 41.1495 44.4392 38.25 48.3052L30.25 42.3052ZM32 42.0552L38 34.0552C33.0294 30.3273 25.9779 31.3346 22.25 36.3052L30.25 42.3052L38.25 48.3052C35.3505 52.1712 29.8659 52.9547 26 50.0552L32 42.0552ZM36.0413 45.0862L42.0413 37.0862L38 34.0552L32 42.0552L26 50.0552L30.0413 53.0862L36.0413 45.0862ZM46.5325 32.2637L38.7929 25.9313L28.3018 38.7539L36.0413 45.0862L43.7809 51.4186L54.2721 38.596L46.5325 32.2637ZM48.2915 32.0878L54.6239 24.3482C49.8151 20.4138 42.7274 21.1225 38.7929 25.9313L46.5325 32.2637L54.2721 38.596C51.212 42.3362 45.6993 42.8875 41.9591 39.8273L48.2915 32.0878Z" fill="white" mask="url(#path-3-inside-1_1_22951)"/>
</g>
<defs>
<filter id="filter0_d_1_22951" x="1.16016" y="0" width="77.6797" height="84.1104" filterUnits="userSpaceOnUse" color-interpolation-filters="sRGB">
<feFlood flood-opacity="0" result="BackgroundImageFix"/>
<feColorMatrix in="SourceAlpha" type="matrix" values="0 0 0 0 0 0 0 0 0 0 0 0 0 0 0 0 0 0 127 0" result="hardAlpha"/>
<feMorphology radius="1" operator="erode" in="SourceAlpha" result="effect1_dropShadow_1_22951"/>
<feOffset dy="1.5"/>
<feGaussianBlur stdDeviation="2"/>
<feComposite in2="hardAlpha" operator="out"/>
<feColorMatrix type="matrix" values="0 0 0 0 0.0627451 0 0 0 0 0.0980392 0 0 0 0 0.156863 0 0 0 0.07 0"/>
<feBlend mode="normal" in2="BackgroundImageFix" result="effect1_dropShadow_1_22951"/>
<feBlend mode="normal" in="SourceGraphic" in2="effect1_dropShadow_1_22951" result="shape"/>
</filter>
</defs>
</svg>
