<svg width="20" height="18" viewBox="0 0 20 18" fill="none" xmlns="http://www.w3.org/2000/svg">
<path d="M16.209 7.69043C16.6397 7.8052 17.0537 7.97682 17.4395 8.2002C17.4897 8.22936 17.5325 8.26981 17.5645 8.31836C17.5965 8.36719 17.6173 8.42342 17.624 8.48145L17.7549 9.5957C17.8023 9.64066 17.8493 9.68763 17.8955 9.73633L19.0078 9.86035C19.0657 9.86708 19.1212 9.88704 19.1699 9.91895C19.2187 9.95088 19.2598 9.99358 19.2891 10.0439C19.5128 10.4295 19.6842 10.8436 19.7988 11.2744C19.814 11.331 19.8157 11.3909 19.8037 11.4482C19.7917 11.5056 19.7661 11.5596 19.7295 11.6055L19.0303 12.4795C19.0321 12.5468 19.0321 12.6143 19.0303 12.6816L19.7256 13.5537C19.7623 13.5995 19.7877 13.6535 19.7998 13.7109C19.8119 13.7683 19.811 13.8281 19.7959 13.8848C19.6811 14.3155 19.5095 14.7294 19.2861 15.1152C19.2569 15.1657 19.2158 15.2082 19.167 15.2402C19.1182 15.2723 19.0629 15.293 19.0049 15.2998L17.8896 15.4307C17.8447 15.4781 17.7977 15.5251 17.749 15.5713L17.626 16.6836C17.6193 16.7415 17.5983 16.7969 17.5664 16.8457C17.5344 16.8945 17.4918 16.9356 17.4414 16.9648C17.0557 17.1886 16.6418 17.36 16.2109 17.4746C16.1542 17.4898 16.0946 17.4915 16.0371 17.4795C15.9797 17.4674 15.9257 17.4419 15.8799 17.4053L15.0059 16.7061C14.9385 16.7079 14.8711 16.7079 14.8037 16.7061L13.9326 17.4014C13.8868 17.4381 13.8328 17.4634 13.7754 17.4756C13.718 17.4877 13.6583 17.4867 13.6016 17.4717C13.1708 17.3569 12.7569 17.1853 12.3711 16.9619C12.3205 16.9327 12.2772 16.8916 12.2451 16.8428C12.2132 16.7941 12.1933 16.7385 12.1865 16.6807L12.167 16.5156H13.1406C13.2945 16.5849 13.4522 16.6456 13.6133 16.6963L13.8398 16.5156H14.7197C15.0228 16.5156 15.314 16.3922 15.5439 16.1719L16.1992 16.6963C16.4418 16.62 16.6771 16.5223 16.9023 16.4043L17.0205 15.3457C17.0308 15.2536 17.0742 15.168 17.1436 15.1064C17.245 15.0163 17.3415 14.9207 17.4316 14.8193C17.4933 14.7499 17.5786 14.7056 17.6709 14.6953L18.7305 14.5752C18.8484 14.35 18.9462 14.1145 19.0225 13.8721L18.3564 13.041C18.2985 12.9685 18.2698 12.8768 18.2754 12.7842C18.2834 12.6487 18.2834 12.5124 18.2754 12.377H18.2744C18.2683 12.2835 18.2969 12.1912 18.3555 12.1182L19.0205 11.2861C18.9443 11.0437 18.8465 10.8081 18.7285 10.583L17.6699 10.4658C17.5778 10.4555 17.4922 10.4111 17.4307 10.3418C17.3406 10.2406 17.2448 10.1447 17.1436 10.0547C17.0742 9.99311 17.0298 9.9076 17.0195 9.81543L16.8994 8.75684C16.6742 8.63893 16.4387 8.54113 16.1963 8.46484L16 8.62109V7.69727C16.0117 7.69359 16.0231 7.68808 16.0352 7.68555C16.0925 7.6735 16.1523 7.67536 16.209 7.69043ZM16 15.0615C15.9999 15.4471 15.865 15.8172 15.625 16.0898C15.5993 16.119 15.5715 16.1455 15.5439 16.1719L15.3682 16.0312C15.3017 15.9782 15.2188 15.9493 15.1338 15.9492H15.1104C14.975 15.9572 14.8394 15.9572 14.7041 15.9492C14.6113 15.9436 14.5198 15.9732 14.4473 16.0312L13.8398 16.5156H13.1406C13.063 16.4807 12.9857 16.4438 12.9102 16.4043L12.79 15.3467C12.7798 15.2545 12.7363 15.169 12.667 15.1074C12.6503 15.0926 12.6345 15.0766 12.6182 15.0615H14.7197V14.8213C15.0753 14.8507 15.4337 14.7966 15.7656 14.6592C15.8464 14.6257 15.9242 14.5862 16 14.5439V15.0615ZM12.7998 0.515625C12.9695 0.515625 13.1329 0.592126 13.2529 0.728516C13.3729 0.864894 13.4404 1.05034 13.4404 1.24316C13.4404 1.43578 13.3727 1.62054 13.2529 1.75684C13.1329 1.89323 12.9695 1.96973 12.7998 1.96973H1.91992C1.75021 1.96975 1.58778 2.04722 1.46777 2.18359C1.34783 2.31994 1.28031 2.50448 1.28027 2.69727C1.28027 2.89015 1.34775 3.07552 1.46777 3.21191C1.58775 3.34811 1.75033 3.42478 1.91992 3.4248H14.7197C15.0591 3.4248 15.385 3.57789 15.625 3.85059C15.865 4.12328 15.9999 4.49326 16 4.87891V7.69727C15.956 7.71116 15.9141 7.73083 15.8779 7.75977L15.0059 8.45605H14.8037L14.7197 8.38867V4.87891H1.91992C1.70202 4.87926 1.48566 4.83758 1.28027 4.75488V14.334C1.28031 14.5268 1.34783 14.7113 1.46777 14.8477C1.58778 14.984 1.75021 15.0615 1.91992 15.0615H10.4922C10.5026 15.0799 10.5119 15.0989 10.5225 15.1172C10.5517 15.1676 10.5928 15.2102 10.6416 15.2422C10.6904 15.2741 10.7458 15.295 10.8037 15.3018L11.916 15.4248C11.9625 15.4735 12.0095 15.5205 12.0566 15.5654L12.167 16.5156H1.91992C1.41085 16.5156 0.922528 16.2859 0.5625 15.877C0.202467 15.4678 4.12796e-05 14.9126 0 14.334V2.69727C4.13907e-05 2.11868 0.202467 1.56343 0.5625 1.1543C0.922528 0.745322 1.41085 0.515649 1.91992 0.515625H12.7998ZM10.9053 9.85059C10.9453 10.0486 11.0327 10.2319 11.1611 10.3779C11.222 10.4471 11.2908 10.505 11.3643 10.5527L11.0811 10.5859C10.9631 10.8111 10.8654 11.0466 10.7891 11.2891L11.4541 12.1221C11.5121 12.1945 11.5416 12.2863 11.5361 12.3789C11.5282 12.5144 11.5282 12.6506 11.5361 12.7861C11.5417 12.8789 11.5122 12.9704 11.4541 13.043L10.7891 13.875C10.8653 14.1175 10.9631 14.353 11.0811 14.5781L12.1396 14.6963C12.2318 14.7065 12.3173 14.75 12.3789 14.8193C12.4543 14.9042 12.5348 14.9845 12.6182 15.0615H10.4922C10.2837 14.6916 10.1219 14.2972 10.0127 13.8867C9.99755 13.83 9.99577 13.7704 10.0078 13.7129C10.0199 13.6554 10.0454 13.6015 10.082 13.5557L10.7803 12.6816V12.4795L10.084 11.6084C10.0473 11.5626 10.0219 11.5086 10.0098 11.4512C9.99764 11.3937 9.99957 11.3341 10.0146 11.2773C10.1294 10.8465 10.301 10.4327 10.5244 10.0469C10.5536 9.99637 10.5938 9.95295 10.6426 9.9209C10.6914 9.88883 10.7476 9.86906 10.8057 9.8623L10.9053 9.85059ZM14.7197 11.0918C14.6838 11.0963 14.648 11.1023 14.6123 11.1094C14.3214 11.1673 14.0545 11.3107 13.8447 11.5205C13.635 11.7303 13.4915 11.9971 13.4336 12.2881C13.3757 12.5791 13.406 12.8812 13.5195 13.1553C13.633 13.4291 13.8249 13.6634 14.0713 13.8281C14.2662 13.9584 14.4888 14.0396 14.7197 14.0684V14.8213C14.6349 14.8143 14.5499 14.8048 14.4658 14.7881C14.0295 14.7013 13.629 14.4864 13.3145 14.1719C12.9998 13.8572 12.7851 13.456 12.6982 13.0195C12.6115 12.5832 12.6559 12.1308 12.8262 11.7197C12.9965 11.3086 13.2853 10.9572 13.6553 10.71C13.9737 10.4973 14.3401 10.3702 14.7197 10.3389V11.0918ZM16 10.6182C16.1796 10.7185 16.347 10.8422 16.4951 10.9902C16.9169 11.4121 17.1547 11.9845 17.1553 12.5811C17.1552 13.026 17.0226 13.4611 16.7754 13.8311C16.5767 14.1282 16.31 14.371 16 14.5439V13.6035C16.259 13.3263 16.4052 12.9617 16.4053 12.5811C16.4053 12.2844 16.3172 11.9937 16.1523 11.7471C16.1069 11.6791 16.0554 11.6159 16 11.5566V10.6182ZM14.7197 11.0918C14.9768 11.0598 15.239 11.0957 15.4795 11.1953C15.6777 11.2775 15.8547 11.4013 16 11.5566V13.6035C15.9884 13.616 15.9779 13.6295 15.9658 13.6416C15.6846 13.9229 15.303 14.081 14.9053 14.0811C14.8431 14.0811 14.781 14.076 14.7197 14.0684V11.0918ZM12.7266 10.0244C12.6539 10.2235 12.5308 10.3939 12.373 10.5137C12.2152 10.6334 12.0296 10.6973 11.8398 10.6973C11.6714 10.6972 11.508 10.6461 11.3643 10.5527L12.1396 10.4658C12.2318 10.4555 12.3173 10.4121 12.3789 10.3428C12.4691 10.2414 12.5646 10.1449 12.666 10.0547C12.6997 10.0249 12.7272 9.98924 12.748 9.9502C12.7408 9.97478 12.7353 10.0004 12.7266 10.0244ZM16 10.6182C15.668 10.4328 15.2922 10.3315 14.9053 10.3311C14.8432 10.3311 14.7812 10.3338 14.7197 10.3389V9.21094C14.8485 9.20411 14.9777 9.20435 15.1064 9.21191C15.1992 9.2175 15.2907 9.18796 15.3633 9.12988L16 8.62109V10.6182ZM13.7725 7.68359C13.8298 7.69562 13.8839 7.72125 13.9297 7.75781L14.7197 8.38867V9.21094C14.7132 9.21128 14.7067 9.21153 14.7002 9.21191C14.6074 9.2175 14.5149 9.18796 14.4424 9.12988L13.6113 8.46484C13.3688 8.54109 13.1334 8.63884 12.9082 8.75684L12.79 9.81543C12.7847 9.86309 12.7703 9.9086 12.748 9.9502C12.8005 9.77102 12.8138 9.57964 12.7812 9.39355C12.7442 9.18202 12.6528 8.98748 12.5186 8.83496C12.4202 8.72323 12.3022 8.63733 12.1729 8.58301L12.1846 8.47949C12.1913 8.42164 12.2113 8.36612 12.2432 8.31738C12.2751 8.26864 12.3178 8.22754 12.3682 8.19824C12.7538 7.97467 13.1679 7.80333 13.5986 7.68848C13.6552 7.67335 13.7151 7.67164 13.7725 7.68359ZM12.0273 8.53613C12.077 8.54737 12.1257 8.56322 12.1729 8.58301L12.0605 9.59375C12.0119 9.64025 11.9649 9.68725 11.9199 9.73438L10.9053 9.85059C10.8892 9.7711 10.8799 9.68931 10.8799 9.60645C10.8799 9.39071 10.9365 9.17937 11.042 9C11.1475 8.82081 11.2974 8.68114 11.4727 8.59863C11.648 8.51609 11.8411 8.49406 12.0273 8.53613Z" fill="black"/>
</svg>
